<svg version="1.1" xmlns="http://www.w3.org/2000/svg" xmlns:xlink="http://www.w3.org/1999/xlink" viewBox="0 0 226 226"><g fill="none" fill-rule="nonzero" stroke="none" stroke-width="1" stroke-linecap="butt" stroke-linejoin="miter" stroke-miterlimit="10" stroke-dasharray="" stroke-dashoffset="0" font-family="none" font-weight="none" font-size="none" text-anchor="none" style="mix-blend-mode: normal"><path d="M0,226v-226h226v226z" fill="none"></path><g fill="#ffffff"><path d="M18.83333,37.66667v131.83333c0,10.40542 8.42792,18.83333 18.83333,18.83333h59.11166c3.2607,5.60889 9.26327,9.41667 16.22168,9.41667c6.95841,0 12.96098,-3.80778 16.22168,-9.41667h59.11166c10.40542,0 18.83333,-8.42792 18.83333,-18.83333v-131.83333h-75.33333c-7.26967,0 -13.82367,2.8278 -18.83333,7.33838c-5.00967,-4.51058 -11.56367,-7.33838 -18.83333,-7.33838zM37.66667,56.5h56.5c5.18858,0 9.41667,4.22808 9.41667,9.41667v103.58333h-65.91667zM131.83333,56.5h56.5v113h-65.91667v-103.58333c0,-5.18858 4.22808,-9.41667 9.41667,-9.41667zM56.5,75.33333v18.83333h28.25v-18.83333zM141.25,75.33333v18.83333h28.25v-18.83333zM56.5,103.58333v18.83333h28.25v-18.83333zM141.25,103.58333v18.83333h28.25v-18.83333zM56.5,131.83333v18.83333h28.25v-18.83333z"></path></g></g></svg>
